<?xml version="1.0" encoding="utf-8"?>
<!-- Generator: Adobe Illustrator 22.1.0, SVG Export Plug-In . SVG Version: 6.00 Build 0)  -->
<svg version="1.1" id="Layer_1" xmlns="http://www.w3.org/2000/svg" xmlns:xlink="http://www.w3.org/1999/xlink" x="0px" y="0px"
	 viewBox="0 0 456 456" style="enable-background:new 0 0 456 456;" xml:space="preserve">
<style type="text/css">
	.st0{fill:#C7BE82;}
</style>
<g>
	<path class="st0" d="M228,0C102.1,0,0,102.1,0,228s102.1,228,228,228s228-102.1,228-228S353.9,0,228,0z M228,94
		c36.7,0,66.5,29.8,66.5,66.5S264.7,227,228,227s-66.5-29.8-66.5-66.5S191.3,94,228,94z M335.5,323.2c0,21.3-17.4,38.7-38.7,38.7
		H159.2c-21.3,0-38.7-17.4-38.7-38.7v-82c0-21.3,17.4-38.7,38.7-38.7h3.2c13.5,22,37.8,36.7,65.5,36.7s52-14.7,65.5-36.7h3.2
		c21.3,0,38.7,17.4,38.7,38.7v82H335.5z"/>
</g>
</svg>
